<?xml version="1.0" encoding="utf-8"?>
<!-- Generator: Adobe Illustrator 22.1.0, SVG Export Plug-In . SVG Version: 6.00 Build 0)  -->
<svg version="1.1" id="Слой_1" xmlns="http://www.w3.org/2000/svg" xmlns:xlink="http://www.w3.org/1999/xlink" x="0px" y="0px"
	 viewBox="0 0 82.7 24.2" style="enable-background:new 0 0 82.7 24.2;" xml:space="preserve">
<style type="text/css">
	.st0{fill-rule:evenodd;clip-rule:evenodd;fill:url(#SVGID_1_);}
</style>
<g>
	<g>
		<linearGradient id="SVGID_1_" gradientUnits="userSpaceOnUse" x1="0" y1="12.0946" x2="82.7286" y2="12.0946">
			<stop  offset="0" style="stop-color:#FFFFFF"/>
			<stop  offset="0" style="stop-color:#E24F2A"/>
			<stop  offset="1" style="stop-color:#EF875D"/>
		</linearGradient>
		<path class="st0" d="M82.4,11.6L61,0.1c-0.2-0.1-0.5-0.1-0.8,0c-0.2,0.1-0.4,0.3-0.4,0.5v23c0,0.2,0.2,0.4,0.4,0.5
			c0.1,0,0.2,0.1,0.3,0.1c0.1,0,0.3,0,0.4-0.1l21.4-11.5c0.2-0.1,0.3-0.3,0.3-0.5C82.7,11.9,82.6,11.7,82.4,11.6z M0,11.5v1.9
			c0,2.2,1.8,4,4,4h55.8V7.6H4C1.8,7.6,0,9.3,0,11.5z"/>
	</g>
</g>
</svg>
